<?xml version="1.0" encoding="UTF-8"?>
<svg width="36px" height="25px" viewBox="0 0 36 25" version="1.1" xmlns="http://www.w3.org/2000/svg" xmlns:xlink="http://www.w3.org/1999/xlink">
    <!-- Generator: Sketch 58 (84663) - https://sketch.com -->
    <title>spacing</title>
    <desc>Created with Sketch.</desc>
    <g id="Page-1" stroke="none" stroke-width="1" fill="none" fill-rule="evenodd">
        <g id="Artboard" transform="translate(-61.000000, -463.000000)">
            <g id="spacing" transform="translate(61.000000, 457.000000)">
                <polygon id="Path" points="0 0 36 0 36 36 0 36"></polygon>
                <polygon id="Path" stroke="#3C4564" stroke-width="0.5" fill="#1B2E3C" fill-rule="nonzero" points="3.64444444 22 3.64444444 15.6215429 1 15.6215429 1 15 7 15 7 15.6215429 4.35555556 15.6215429 4.35555556 22"></polygon>
                <polygon id="Path" stroke="#3C4564" stroke-width="0.5" fill="#1B2E3C" fill-rule="nonzero" points="31.6444444 22 31.6444444 15.6215429 29 15.6215429 29 15 35 15 35 15.6215429 32.3555556 15.6215429 32.3555556 22"></polygon>
                <path d="M24.0278746,13.5635877 C23.8513348,11.8455961 23.2389716,10.6017441 22.1907666,9.83199465 C21.1425615,9.06224515 19.8019826,8.67737617 18.1689895,8.67737617 C17.5069653,8.67737617 16.8559846,8.74430991 16.2160279,8.87817938 C15.5760711,9.01204886 15.0078422,9.23516131 14.511324,9.54752343 C14.0148059,9.85988554 13.6175973,10.2782214 13.3196864,10.8025435 C13.0217755,11.3268656 12.8728223,11.9794695 12.8728223,12.7603748 C12.8728223,13.496657 13.0879769,14.0934828 13.5182927,14.5508701 C13.9486084,15.0082575 14.5223541,15.3819709 15.239547,15.6720214 C15.9567399,15.962072 16.7677074,16.2019178 17.6724739,16.3915663 C18.5772403,16.5812147 19.4985435,16.7875937 20.4364111,17.0107095 C21.3742788,17.2338253 22.295582,17.4959824 23.2003484,17.7971888 C24.1051149,18.0983951 24.9160824,18.5055753 25.6332753,19.0187416 C26.3504682,19.531908 26.9242139,20.1789341 27.3545296,20.9598394 C27.7848454,21.7407446 28,22.7224394 28,23.9049531 C28,25.1767132 27.7186439,26.2643864 27.1559233,27.1680054 C26.5932028,28.0716243 25.8705038,28.8078954 24.9878049,29.3768407 C24.1051059,29.945786 23.1176013,30.358544 22.0252613,30.6151272 C20.9329214,30.8717103 19.8461146,31 18.7648084,31 C17.4407599,31 16.1884496,30.8326657 15.0078397,30.497992 C13.8272299,30.1633183 12.7900742,29.6557374 11.8963415,28.9752343 C11.0026088,28.2947311 10.2964602,27.4245925 9.77787456,26.3647925 C9.25928893,25.3049925 9,24.0499849 9,22.5997323 L11.9790941,22.5997323 C11.9790941,23.6037533 12.1721816,24.4683141 12.5583624,25.1934404 C12.9445432,25.9185668 13.4520874,26.5153926 14.0810105,26.9839357 C14.7099335,27.4524789 15.443666,27.7983032 16.28223,28.021419 C17.120794,28.2445348 17.9814125,28.356091 18.8641115,28.356091 C19.5702707,28.356091 20.281936,28.2891573 20.9991289,28.1552878 C21.7163218,28.0214183 22.3617857,27.7927281 22.9355401,27.4692102 C23.5092944,27.1456923 23.9727044,26.7050452 24.325784,26.1472557 C24.6788636,25.5894662 24.8554007,24.8755064 24.8554007,24.0053548 C24.8554007,23.1798263 24.6402461,22.510489 24.2099303,21.9973226 C23.7796146,21.4841563 23.2058689,21.0658204 22.488676,20.7423025 C21.7714831,20.4187846 20.9605156,20.1566275 20.0557491,19.9558233 L17.2918118,19.3366801 C16.3539442,19.12472 15.432641,18.8792964 14.5278746,18.6004016 C13.6231081,18.3215069 12.8121406,17.9533713 12.0949477,17.4959839 C11.3777548,17.0385966 10.8040091,16.4473486 10.3736934,15.7222222 C9.94337764,14.9970959 9.728223,14.0879127 9.728223,12.9946452 C9.728223,11.7898199 9.97096157,10.7467692 10.456446,9.86546185 C10.9419304,8.98415445 11.5873943,8.25903899 12.3928571,7.69009371 C13.1983199,7.12114843 14.1141064,6.69723477 15.1402439,6.41834003 C16.1663814,6.13944528 17.2200875,6 18.3013937,6 C19.5151048,6 20.6405291,6.14502309 21.6777003,6.43507363 C22.7148716,6.72512416 23.6251413,7.18250469 24.4085366,7.80722892 C25.1919319,8.43195315 25.8098119,9.21842453 26.2621951,10.1666667 C26.7145783,11.1149088 26.9628337,12.2472045 27.0069686,13.5635877 L24.0278746,13.5635877 Z" id="S" fill="#3DB59A" fill-rule="nonzero"></path>
            </g>
        </g>
    </g>
</svg>