<?xml version="1.0" encoding="UTF-8"?>
<svg width="40px" height="28px" viewBox="0 0 40 28" version="1.1" xmlns="http://www.w3.org/2000/svg" xmlns:xlink="http://www.w3.org/1999/xlink">
    <!-- Generator: Sketch 58 (84663) - https://sketch.com -->
    <title>tts</title>
    <desc>Created with Sketch.</desc>
    <g id="Page-1" stroke="none" stroke-width="1" fill="none" fill-rule="evenodd" stroke-linecap="round" stroke-linejoin="round">
        <g id="Artboard" transform="translate(-271.000000, -291.000000)" stroke-width="2">
            <g id="tts" transform="translate(272.000000, 292.000000)">
                <path d="M19.5,9 L19.5,17" id="Path" stroke="#1B2E3C" transform="translate(19.500000, 13.000000) scale(-1, 1) translate(-19.500000, -13.000000) "></path>
                <path d="M14.5,6 L14.5,21" id="Path" stroke="#3DB59A" transform="translate(14.500000, 13.500000) scale(-1, 1) translate(-14.500000, -13.500000) "></path>
                <path d="M9.5,0 L9.5,26" id="Path" stroke="#1B2E3C" transform="translate(9.500000, 13.000000) scale(-1, 1) translate(-9.500000, -13.000000) "></path>
                <path d="M0.5,11 L0.5,14" id="Path" stroke="#1B2E3C" transform="translate(0.500000, 12.500000) scale(-1, 1) translate(-0.500000, -12.500000) "></path>
                <path d="M5.5,6 L5.5,20" id="Path" stroke="#3DB59A" transform="translate(5.500000, 13.000000) scale(-1, 1) translate(-5.500000, -13.000000) "></path>
                <path d="M37.5,9 L37.5,17" id="Path" stroke="#3DB59A" transform="translate(37.500000, 13.000000) scale(-1, 1) translate(-37.500000, -13.000000) "></path>
                <path d="M32.5,6 L32.5,21" id="Path" stroke="#3DB59A" transform="translate(32.500000, 13.500000) scale(-1, 1) translate(-32.500000, -13.500000) "></path>
                <path d="M28.5,0 L28.5,26" id="Path" stroke="#1B2E3C" transform="translate(28.500000, 13.000000) scale(-1, 1) translate(-28.500000, -13.000000) "></path>
                <path d="M19.5,11 L19.5,14" id="Path" stroke="#1B2E3C" transform="translate(19.500000, 12.500000) scale(-1, 1) translate(-19.500000, -12.500000) "></path>
                <path d="M23.5,6 L23.5,20" id="Path" stroke="#3DB59A" transform="translate(23.500000, 13.000000) scale(-1, 1) translate(-23.500000, -13.000000) "></path>
            </g>
        </g>
    </g>
</svg>